<svg xmlns="http://www.w3.org/2000/svg" viewBox="0 0 512 512">
  <defs>
    <linearGradient id="bg" x1="10%" y1="0%" x2="90%" y2="100%">
      <stop offset="0%" stop-color="#ffe3ee" />
      <stop offset="100%" stop-color="#ff4b6e" />
    </linearGradient>
    <linearGradient id="pulse" x1="0%" y1="0%" x2="100%" y2="100%">
      <stop offset="0%" stop-color="#fcd34d" />
      <stop offset="100%" stop-color="#fb923c" />
    </linearGradient>
  </defs>
  <rect width="512" height="512" rx="120" fill="url(#bg)" />
  <g fill="none" stroke-linecap="round" stroke-linejoin="round" stroke-width="28">
    <path stroke="#ffffff" d="M152 212c28-60 106-84 166-56 60 28 86 104 58 164-28 60-113 118-149 140-6 4-12 4-18 0-36-22-123-80-151-140-28-60-1-136 59-164 60-28 138-4 166 56" />
    <path stroke="url(#pulse)" d="M256 156v96l68 42" />
  </g>
</svg>


